<?xml version="1.0" encoding="utf-8"?>
<!-- Generator: Adobe Illustrator 26.0.0, SVG Export Plug-In . SVG Version: 6.00 Build 0)  -->
<!DOCTYPE svg PUBLIC "-//W3C//DTD SVG 1.1//EN" "http://www.w3.org/Graphics/SVG/1.1/DTD/svg11.dtd" [
	<!ENTITY st0 "display:none;">
	<!ENTITY st1 "fill:none;stroke:#1DE099;stroke-width:2;stroke-linecap:round;stroke-miterlimit:10;">
	<!ENTITY st2 "fill:none;stroke:#1DE099;stroke-width:2;stroke-linecap:round;stroke-linejoin:round;stroke-miterlimit:10;">
	<!ENTITY st3 "display:inline;">
	<!ENTITY st4 "fill:#1D1D1D;">
	<!ENTITY st5 "display:inline;fill:none;stroke:#1DE099;stroke-width:2;stroke-linecap:round;stroke-miterlimit:10;">
	<!ENTITY st6 "display:inline;fill:#FFFFFF;">
	<!ENTITY st7 "display:none;fill:#FFFFFF;">
	<!ENTITY st8 "display:none;fill:none;stroke:#1DE099;stroke-width:2;stroke-linecap:round;stroke-miterlimit:10;">
	
		<!ENTITY st9 "display:none;fill:none;stroke:#1DE099;stroke-width:2;stroke-linecap:round;stroke-linejoin:round;stroke-miterlimit:10;">
	<!ENTITY st10 "fill:none;stroke:#1DE099;stroke-width:2.5;stroke-linecap:round;stroke-miterlimit:10;">
]>
<svg version="1.1" xmlns="http://www.w3.org/2000/svg" xmlns:xlink="http://www.w3.org/1999/xlink" x="0px" y="0px"
	 viewBox="0 0 68 28" style="enable-background:new 0 0 68 28;" xml:space="preserve">
<g id="Capa_1" style="&st0;">
	<line style="&st1;" x1="50.5" y1="1.2" x2="39" y2="9.3"/>
	<line style="&st1;" x1="50.9" y1="1.5" x2="63.1" y2="8.5"/>
	<line style="&st2;" x1="63.5" y1="25" x2="63.5" y2="9"/>
	<rect x="37" y="12" style="&st1;" width="28" height="14"/>
	<rect x="37" y="1" style="&st1;" width="14" height="25"/>
	<rect x="51" y="1" style="&st1;" width="14" height="25"/>
	<g style="&st3;">
		<path style="&st4;" d="M3,24.8c-0.3,0-0.5-0.1-0.7-0.2c-0.2-0.2-0.2-0.4-0.2-0.7V11.6c0-0.3,0.1-0.5,0.2-0.7
			c0.2-0.2,0.4-0.2,0.7-0.2h7.4c0.2,0,0.4,0.1,0.5,0.2s0.2,0.3,0.2,0.5c0,0.2-0.1,0.4-0.2,0.5s-0.3,0.2-0.5,0.2H3.7V17H10
			c0.2,0,0.4,0.1,0.5,0.2c0.1,0.1,0.2,0.3,0.2,0.5c0,0.2-0.1,0.4-0.2,0.5c-0.1,0.1-0.3,0.2-0.5,0.2H3.7v5.1h6.7
			c0.2,0,0.4,0.1,0.5,0.2c0.1,0.1,0.2,0.3,0.2,0.5c0,0.2-0.1,0.4-0.2,0.5s-0.3,0.2-0.5,0.2H3z"/>
		<path style="&st4;" d="M13.8,24.8c-0.2,0-0.4,0-0.5-0.1c-0.1-0.1-0.2-0.2-0.3-0.4S13,24,13,23.8c0-0.2,0.1-0.4,0.3-0.6l8.3-11.7
			v0.6h-7.9c-0.3,0-0.4-0.1-0.6-0.2c-0.1-0.1-0.2-0.3-0.2-0.5s0.1-0.4,0.2-0.5s0.3-0.2,0.6-0.2h8.7c0.2,0,0.4,0,0.5,0.1
			c0.1,0.1,0.2,0.2,0.3,0.4c0,0.1,0,0.3,0,0.5c0,0.2-0.1,0.4-0.3,0.6L14.6,24v-0.6h8.2c0.3,0,0.4,0.1,0.6,0.2
			c0.1,0.1,0.2,0.3,0.2,0.5c0,0.2-0.1,0.4-0.2,0.5s-0.3,0.2-0.6,0.2H13.8z"/>
		<path style="&st4;" d="M26.5,25c-0.3,0-0.5-0.1-0.6-0.2c-0.1-0.2-0.2-0.4-0.2-0.6V11.4c0-0.3,0.1-0.5,0.2-0.6
			c0.1-0.1,0.3-0.2,0.6-0.2c0.3,0,0.5,0.1,0.6,0.2c0.1,0.1,0.2,0.4,0.2,0.6V17h8.5v-5.5c0-0.3,0.1-0.5,0.2-0.6
			c0.1-0.1,0.3-0.2,0.6-0.2c0.3,0,0.5,0.1,0.6,0.2c0.1,0.1,0.2,0.4,0.2,0.6v12.7c0,0.3-0.1,0.5-0.2,0.6c-0.1,0.2-0.3,0.2-0.6,0.2
			c-0.3,0-0.5-0.1-0.6-0.2c-0.1-0.2-0.2-0.4-0.2-0.6v-5.7h-8.5v5.7c0,0.3-0.1,0.5-0.2,0.6C27,24.9,26.8,25,26.5,25z"/>
		<path style="&st4;" d="M44.3,25c-0.8,0-1.4-0.1-2-0.4c-0.5-0.3-0.9-0.7-1.2-1.3c-0.3-0.6-0.4-1.3-0.4-2.1v-5.4
			c0-0.3,0.1-0.5,0.2-0.6c0.1-0.1,0.3-0.2,0.6-0.2c0.3,0,0.5,0.1,0.6,0.2c0.1,0.1,0.2,0.3,0.2,0.6v5.3c0,0.9,0.2,1.5,0.5,1.9
			c0.4,0.4,0.9,0.6,1.7,0.6c0.8,0,1.5-0.3,2-0.8c0.5-0.6,0.8-1.3,0.8-2.2v-4.8c0-0.3,0.1-0.5,0.2-0.6c0.1-0.1,0.3-0.2,0.6-0.2
			c0.3,0,0.4,0.1,0.6,0.2c0.1,0.1,0.2,0.3,0.2,0.6v8.3c0,0.6-0.3,0.8-0.8,0.8c-0.3,0-0.5-0.1-0.6-0.2s-0.2-0.4-0.2-0.6v-1.8l0.3,0.3
			c-0.3,0.8-0.7,1.4-1.3,1.8C45.8,24.8,45.1,25,44.3,25z"/>
		<path style="&st4;" d="M57.1,25c-0.9,0-1.6-0.2-2.3-0.7c-0.6-0.5-1.1-1.1-1.3-1.8l0.2-0.2v1.8c0,0.3-0.1,0.5-0.2,0.6
			c-0.1,0.1-0.3,0.2-0.6,0.2c-0.3,0-0.5-0.1-0.6-0.2c-0.1-0.1-0.2-0.4-0.2-0.6V11.4c0-0.3,0.1-0.5,0.2-0.6c0.1-0.1,0.3-0.2,0.6-0.2
			c0.3,0,0.5,0.1,0.6,0.2c0.1,0.1,0.2,0.3,0.2,0.6v6h-0.2c0.2-0.7,0.7-1.3,1.3-1.8c0.6-0.4,1.4-0.7,2.3-0.7c0.9,0,1.6,0.2,2.3,0.6
			c0.6,0.4,1.1,1,1.5,1.7s0.5,1.6,0.5,2.7c0,1-0.2,1.9-0.5,2.7S60,24,59.3,24.4S57.9,25,57.1,25z M56.7,23.7c0.6,0,1.1-0.1,1.6-0.4
			c0.4-0.3,0.8-0.7,1-1.3c0.2-0.6,0.4-1.2,0.4-2c0-1.2-0.3-2.1-0.8-2.8c-0.5-0.6-1.3-1-2.2-1c-0.6,0-1.1,0.1-1.6,0.4s-0.8,0.7-1,1.3
			c-0.2,0.6-0.4,1.2-0.4,2.1c0,1.2,0.3,2.1,0.8,2.8S55.8,23.7,56.7,23.7z"/>
	</g>
	<polyline style="&st5;" points="39,13.2 52,3.5 65,13.2 65,25.5 	"/>
</g>
<g id="Capa_3" style="&st0;">
	<rect y="-1" style="&st6;" width="70" height="31"/>
</g>
<g id="Capa_1_copia">
	<rect x="-88" y="22" style="&st7;" width="70" height="31"/>
	<line style="&st8;" x1="50.5" y1="1.2" x2="39" y2="9.3"/>
	<line style="&st8;" x1="50.9" y1="1.5" x2="63.1" y2="8.5"/>
	<line style="&st9;" x1="63.5" y1="25" x2="63.5" y2="9"/>
	<rect x="37" y="12" style="&st8;" width="28" height="14"/>
	<rect x="37" y="1" style="&st8;" width="14" height="25"/>
	<rect x="51" y="1" style="&st8;" width="14" height="25"/>
	<g>
		<path style="&st4;" d="M2.5,24.8c-0.4,0-0.6-0.1-0.8-0.3c-0.2-0.2-0.3-0.5-0.3-0.8V11.8c0-0.4,0.1-0.6,0.3-0.8
			c0.2-0.2,0.5-0.3,0.8-0.3h7.3c0.3,0,0.5,0.1,0.6,0.2c0.1,0.1,0.2,0.3,0.2,0.6c0,0.3-0.1,0.5-0.2,0.6c-0.1,0.1-0.4,0.2-0.6,0.2H3.4
			v4.4h6c0.3,0,0.5,0.1,0.6,0.2c0.1,0.1,0.2,0.4,0.2,0.6c0,0.3-0.1,0.5-0.2,0.6c-0.1,0.1-0.4,0.2-0.6,0.2h-6v4.6h6.4
			c0.3,0,0.5,0.1,0.6,0.2c0.1,0.1,0.2,0.4,0.2,0.6c0,0.3-0.1,0.5-0.2,0.6c-0.1,0.1-0.4,0.2-0.6,0.2H2.5z"/>
		<path style="&st4;" d="M13.7,24.8c-0.3,0-0.5-0.1-0.6-0.2c-0.2-0.1-0.3-0.3-0.3-0.5s-0.1-0.4,0-0.6c0.1-0.2,0.2-0.5,0.4-0.7
			l8-11.1v0.7h-7.5c-0.3,0-0.5-0.1-0.7-0.2s-0.2-0.4-0.2-0.7c0-0.3,0.1-0.5,0.2-0.6c0.2-0.1,0.4-0.2,0.7-0.2H22
			c0.3,0,0.5,0.1,0.7,0.2c0.2,0.1,0.3,0.3,0.4,0.4c0.1,0.2,0.1,0.4,0,0.6c-0.1,0.2-0.2,0.5-0.4,0.7l-8,11.1v-0.7h7.8
			c0.3,0,0.5,0.1,0.7,0.2c0.2,0.1,0.2,0.4,0.2,0.6c0,0.3-0.1,0.5-0.2,0.7c-0.2,0.2-0.4,0.2-0.7,0.2H13.7z"/>
		<path style="&st4;" d="M26.6,25c-0.3,0-0.6-0.1-0.8-0.3c-0.2-0.2-0.3-0.4-0.3-0.8V11.6c0-0.3,0.1-0.6,0.3-0.8
			c0.2-0.2,0.4-0.3,0.8-0.3c0.3,0,0.6,0.1,0.8,0.3c0.2,0.2,0.3,0.4,0.3,0.8v5.2h7.9v-5.2c0-0.3,0.1-0.6,0.3-0.8
			c0.2-0.2,0.4-0.3,0.8-0.3c0.3,0,0.6,0.1,0.8,0.3c0.2,0.2,0.3,0.4,0.3,0.8v12.3c0,0.3-0.1,0.6-0.3,0.8c-0.2,0.2-0.4,0.3-0.8,0.3
			c-0.3,0-0.6-0.1-0.8-0.3c-0.2-0.2-0.3-0.4-0.3-0.8v-5.4h-7.9v5.4c0,0.3-0.1,0.6-0.3,0.8S26.9,25,26.6,25z"/>
		<path style="&st4;" d="M44.3,25c-0.8,0-1.4-0.1-2-0.4c-0.5-0.3-0.9-0.7-1.2-1.3s-0.4-1.3-0.4-2.2v-5.1c0-0.3,0.1-0.6,0.3-0.8
			c0.2-0.2,0.4-0.2,0.7-0.2c0.3,0,0.6,0.1,0.8,0.2c0.2,0.2,0.3,0.4,0.3,0.8v5.1c0,0.8,0.2,1.4,0.5,1.7c0.3,0.4,0.8,0.6,1.5,0.6
			c0.8,0,1.4-0.3,1.9-0.8c0.5-0.5,0.7-1.2,0.7-2v-4.6c0-0.3,0.1-0.6,0.3-0.8c0.2-0.2,0.4-0.2,0.8-0.2c0.3,0,0.6,0.1,0.7,0.2
			c0.2,0.2,0.3,0.4,0.3,0.8v8c0,0.7-0.3,1-1,1c-0.3,0-0.5-0.1-0.7-0.3c-0.2-0.2-0.3-0.4-0.3-0.8v-1.7l0.3,0.4
			c-0.3,0.7-0.7,1.3-1.3,1.7C45.8,24.8,45.1,25,44.3,25z"/>
		<path style="&st4;" d="M57.7,25c-0.9,0-1.6-0.2-2.2-0.7c-0.6-0.4-1-1-1.3-1.7l0.2-0.4v1.7c0,0.3-0.1,0.6-0.3,0.8
			C54,24.9,53.7,25,53.4,25c-0.3,0-0.6-0.1-0.7-0.3c-0.2-0.2-0.3-0.4-0.3-0.8V11.6c0-0.3,0.1-0.6,0.3-0.8c0.2-0.2,0.4-0.3,0.7-0.3
			s0.6,0.1,0.8,0.3s0.3,0.4,0.3,0.8v5.6h-0.2c0.2-0.7,0.6-1.3,1.3-1.7s1.4-0.6,2.2-0.6c0.9,0,1.6,0.2,2.3,0.6c0.6,0.4,1.1,1,1.5,1.7
			c0.4,0.7,0.5,1.6,0.5,2.7c0,1-0.2,1.9-0.5,2.7s-0.9,1.4-1.5,1.8C59.3,24.8,58.5,25,57.7,25z M57.2,23.4c0.6,0,1-0.1,1.5-0.4
			s0.7-0.7,1-1.2c0.2-0.5,0.3-1.2,0.3-1.9c0-1.1-0.2-2-0.8-2.6c-0.5-0.6-1.2-0.9-2-0.9c-0.5,0-1,0.1-1.5,0.4c-0.4,0.3-0.7,0.7-1,1.2
			c-0.2,0.5-0.3,1.2-0.3,1.9c0,1.1,0.3,2,0.8,2.6C55.7,23.1,56.3,23.4,57.2,23.4z"/>
	</g>
	<polyline style="&st10;" points="39.4,13.2 52.4,3.5 65.4,13.2 65.4,25.5 	"/>
	<g>
	</g>
	<g>
	</g>
	<g>
	</g>
	<g>
	</g>
	<g>
	</g>
	<g>
	</g>
	<g>
	</g>
	<g>
	</g>
	<g>
	</g>
	<g>
	</g>
	<g>
	</g>
	<g>
	</g>
	<g>
	</g>
	<g>
	</g>
	<g>
	</g>
</g>
</svg>
