<?xml version="1.0" encoding="utf-8"?>
<!-- Generator: Adobe Illustrator 26.0.0, SVG Export Plug-In . SVG Version: 6.00 Build 0)  -->
<!DOCTYPE svg PUBLIC "-//W3C//DTD SVG 1.1//EN" "http://www.w3.org/Graphics/SVG/1.1/DTD/svg11.dtd" [
	<!ENTITY st0 "display:none;">
	<!ENTITY st1 "fill:none;stroke:#1DE099;stroke-width:2;stroke-linecap:round;stroke-miterlimit:10;">
	<!ENTITY st2 "fill:none;stroke:#1DE099;stroke-width:2;stroke-linecap:round;stroke-linejoin:round;stroke-miterlimit:10;">
	<!ENTITY st3 "display:inline;">
	<!ENTITY st4 "fill:#1D1D1D;">
	<!ENTITY st5 "display:inline;fill:none;stroke:#1DE099;stroke-width:2;stroke-linecap:round;stroke-miterlimit:10;">
	<!ENTITY st6 "display:inline;fill:#FFFFFF;">
	<!ENTITY st7 "display:inline;fill:none;stroke:#1DE099;stroke-width:2.5;stroke-linecap:round;stroke-miterlimit:10;">
	<!ENTITY st8 "display:inline;fill:#C1272D;">
	<!ENTITY st9 "fill:#FFFFFF;">
	<!ENTITY st10 "display:none;fill:#FFFFFF;">
	<!ENTITY st11 "fill:none;">
	<!ENTITY st12 "fill:none;stroke:#1DE099;stroke-width:2.5;stroke-linecap:round;stroke-miterlimit:10;">
]>
<svg version="1.1" xmlns="http://www.w3.org/2000/svg" xmlns:xlink="http://www.w3.org/1999/xlink" x="0px" y="0px"
	 viewBox="0 0 31 28" style="enable-background:new 0 0 31 28;" xml:space="preserve">
<g id="Capa_1" style="&st0;">
	<line style="&st1;" x1="-74.5" y1="1.2" x2="-86" y2="9.3"/>
	<line style="&st1;" x1="-74.1" y1="1.5" x2="-61.9" y2="8.5"/>
	<line style="&st2;" x1="-61.5" y1="25" x2="-61.5" y2="9"/>
	<rect x="-88" y="12" style="&st1;" width="28" height="14"/>
	<rect x="-88" y="1" style="&st1;" width="14" height="25"/>
	<rect x="-74" y="1" style="&st1;" width="14" height="25"/>
	<g style="&st3;">
		<path style="&st4;" d="M-122,24.8c-0.3,0-0.5-0.1-0.7-0.2c-0.2-0.2-0.2-0.4-0.2-0.7V11.6c0-0.3,0.1-0.5,0.2-0.7
			c0.2-0.2,0.4-0.2,0.7-0.2h7.4c0.2,0,0.4,0.1,0.5,0.2s0.2,0.3,0.2,0.5c0,0.2-0.1,0.4-0.2,0.5s-0.3,0.2-0.5,0.2h-6.7V17h6.3
			c0.2,0,0.4,0.1,0.5,0.2c0.1,0.1,0.2,0.3,0.2,0.5c0,0.2-0.1,0.4-0.2,0.5c-0.1,0.1-0.3,0.2-0.5,0.2h-6.3v5.1h6.7
			c0.2,0,0.4,0.1,0.5,0.2c0.1,0.1,0.2,0.3,0.2,0.5c0,0.2-0.1,0.4-0.2,0.5s-0.3,0.2-0.5,0.2H-122z"/>
		<path style="&st4;" d="M-111.2,24.8c-0.2,0-0.4,0-0.5-0.1c-0.1-0.1-0.2-0.2-0.3-0.4s-0.1-0.3,0-0.5c0-0.2,0.1-0.4,0.3-0.6
			l8.3-11.7v0.6h-7.9c-0.3,0-0.4-0.1-0.6-0.2c-0.1-0.1-0.2-0.3-0.2-0.5s0.1-0.4,0.2-0.5s0.3-0.2,0.6-0.2h8.7c0.2,0,0.4,0,0.5,0.1
			c0.1,0.1,0.2,0.2,0.3,0.4c0,0.1,0,0.3,0,0.5c0,0.2-0.1,0.4-0.3,0.6l-8.3,11.7v-0.6h8.2c0.3,0,0.4,0.1,0.6,0.2
			c0.1,0.1,0.2,0.3,0.2,0.5c0,0.2-0.1,0.4-0.2,0.5s-0.3,0.2-0.6,0.2H-111.2z"/>
		<path style="&st4;" d="M-98.5,25c-0.3,0-0.5-0.1-0.6-0.2c-0.1-0.2-0.2-0.4-0.2-0.6V11.4c0-0.3,0.1-0.5,0.2-0.6
			c0.1-0.1,0.3-0.2,0.6-0.2c0.3,0,0.5,0.1,0.6,0.2c0.1,0.1,0.2,0.4,0.2,0.6V17h8.5v-5.5c0-0.3,0.1-0.5,0.2-0.6
			c0.1-0.1,0.3-0.2,0.6-0.2c0.3,0,0.5,0.1,0.6,0.2c0.1,0.1,0.2,0.4,0.2,0.6v12.7c0,0.3-0.1,0.5-0.2,0.6c-0.1,0.2-0.3,0.2-0.6,0.2
			c-0.3,0-0.5-0.1-0.6-0.2c-0.1-0.2-0.2-0.4-0.2-0.6v-5.7h-8.5v5.7c0,0.3-0.1,0.5-0.2,0.6C-98,24.9-98.2,25-98.5,25z"/>
		<path style="&st4;" d="M-80.7,25c-0.8,0-1.4-0.1-2-0.4c-0.5-0.3-0.9-0.7-1.2-1.3c-0.3-0.6-0.4-1.3-0.4-2.1v-5.4
			c0-0.3,0.1-0.5,0.2-0.6c0.1-0.1,0.3-0.2,0.6-0.2c0.3,0,0.5,0.1,0.6,0.2c0.1,0.1,0.2,0.3,0.2,0.6v5.3c0,0.9,0.2,1.5,0.5,1.9
			c0.4,0.4,0.9,0.6,1.7,0.6c0.8,0,1.5-0.3,2-0.8c0.5-0.6,0.8-1.3,0.8-2.2v-4.8c0-0.3,0.1-0.5,0.2-0.6c0.1-0.1,0.3-0.2,0.6-0.2
			c0.3,0,0.4,0.1,0.6,0.2c0.1,0.1,0.2,0.3,0.2,0.6v8.3c0,0.6-0.3,0.8-0.8,0.8c-0.3,0-0.5-0.1-0.6-0.2s-0.2-0.4-0.2-0.6v-1.8l0.3,0.3
			c-0.3,0.8-0.7,1.4-1.3,1.8C-79.2,24.8-79.9,25-80.7,25z"/>
		<path style="&st4;" d="M-67.9,25c-0.9,0-1.6-0.2-2.3-0.7c-0.6-0.5-1.1-1.1-1.3-1.8l0.2-0.2v1.8c0,0.3-0.1,0.5-0.2,0.6
			c-0.1,0.1-0.3,0.2-0.6,0.2c-0.3,0-0.5-0.1-0.6-0.2c-0.1-0.1-0.2-0.4-0.2-0.6V11.4c0-0.3,0.1-0.5,0.2-0.6c0.1-0.1,0.3-0.2,0.6-0.2
			c0.3,0,0.5,0.1,0.6,0.2c0.1,0.1,0.2,0.3,0.2,0.6v6h-0.2c0.2-0.7,0.7-1.3,1.3-1.8c0.6-0.4,1.4-0.7,2.3-0.7c0.9,0,1.6,0.2,2.3,0.6
			c0.6,0.4,1.1,1,1.5,1.7s0.5,1.6,0.5,2.7c0,1-0.2,1.9-0.5,2.7s-0.9,1.3-1.5,1.8S-67.1,25-67.9,25z M-68.3,23.7
			c0.6,0,1.1-0.1,1.6-0.4c0.4-0.3,0.8-0.7,1-1.3c0.2-0.6,0.4-1.2,0.4-2c0-1.2-0.3-2.1-0.8-2.8c-0.5-0.6-1.3-1-2.2-1
			c-0.6,0-1.1,0.1-1.6,0.4s-0.8,0.7-1,1.3c-0.2,0.6-0.4,1.2-0.4,2.1c0,1.2,0.3,2.1,0.8,2.8S-69.2,23.7-68.3,23.7z"/>
	</g>
	<polyline style="&st5;" points="-86,13.2 -73,3.5 -60,13.2 -60,25.5 	"/>
</g>
<g id="Capa_3" style="&st0;">
	<rect x="-125" y="-1" style="&st6;" width="70" height="31"/>
</g>
<g id="Capa_1_copia" style="&st0;">
	<rect x="-213" y="22" style="&st6;" width="70" height="31"/>
	<line style="&st1;" x1="-74.5" y1="1.2" x2="-86" y2="9.3"/>
	<line style="&st1;" x1="-74.1" y1="1.5" x2="-61.9" y2="8.5"/>
	<line style="&st2;" x1="-61.5" y1="25" x2="-61.5" y2="9"/>
	<rect x="-88" y="12" style="&st1;" width="28" height="14"/>
	<rect x="-88" y="1" style="&st1;" width="14" height="25"/>
	<rect x="-74" y="1" style="&st1;" width="14" height="25"/>
	<g style="&st3;">
		<path style="&st4;" d="M-122.5,24.8c-0.4,0-0.6-0.1-0.8-0.3c-0.2-0.2-0.3-0.5-0.3-0.8V11.8c0-0.4,0.1-0.6,0.3-0.8
			c0.2-0.2,0.5-0.3,0.8-0.3h7.3c0.3,0,0.5,0.1,0.6,0.2c0.1,0.1,0.2,0.3,0.2,0.6c0,0.3-0.1,0.5-0.2,0.6c-0.1,0.1-0.4,0.2-0.6,0.2
			h-6.4v4.4h6c0.3,0,0.5,0.1,0.6,0.2c0.1,0.1,0.2,0.4,0.2,0.6c0,0.3-0.1,0.5-0.2,0.6c-0.1,0.1-0.4,0.2-0.6,0.2h-6v4.6h6.4
			c0.3,0,0.5,0.1,0.6,0.2c0.1,0.1,0.2,0.4,0.2,0.6c0,0.3-0.1,0.5-0.2,0.6c-0.1,0.1-0.4,0.2-0.6,0.2H-122.5z"/>
		<path style="&st4;" d="M-111.3,24.8c-0.3,0-0.5-0.1-0.6-0.2c-0.2-0.1-0.3-0.3-0.3-0.5s-0.1-0.4,0-0.6c0.1-0.2,0.2-0.5,0.4-0.7
			l8-11.1v0.7h-7.5c-0.3,0-0.5-0.1-0.7-0.2s-0.2-0.4-0.2-0.7c0-0.3,0.1-0.5,0.2-0.6c0.2-0.1,0.4-0.2,0.7-0.2h8.5
			c0.3,0,0.5,0.1,0.7,0.2c0.2,0.1,0.3,0.3,0.4,0.4c0.1,0.2,0.1,0.4,0,0.6c-0.1,0.2-0.2,0.5-0.4,0.7l-8,11.1v-0.7h7.8
			c0.3,0,0.5,0.1,0.7,0.2c0.2,0.1,0.2,0.4,0.2,0.6c0,0.3-0.1,0.5-0.2,0.7c-0.2,0.2-0.4,0.2-0.7,0.2H-111.3z"/>
		<path style="&st4;" d="M-98.4,25c-0.3,0-0.6-0.1-0.8-0.3c-0.2-0.2-0.3-0.4-0.3-0.8V11.6c0-0.3,0.1-0.6,0.3-0.8
			c0.2-0.2,0.4-0.3,0.8-0.3c0.3,0,0.6,0.1,0.8,0.3c0.2,0.2,0.3,0.4,0.3,0.8v5.2h7.9v-5.2c0-0.3,0.1-0.6,0.3-0.8
			c0.2-0.2,0.4-0.3,0.8-0.3c0.3,0,0.6,0.1,0.8,0.3c0.2,0.2,0.3,0.4,0.3,0.8v12.3c0,0.3-0.1,0.6-0.3,0.8c-0.2,0.2-0.4,0.3-0.8,0.3
			c-0.3,0-0.6-0.1-0.8-0.3c-0.2-0.2-0.3-0.4-0.3-0.8v-5.4h-7.9v5.4c0,0.3-0.1,0.6-0.3,0.8S-98.1,25-98.4,25z"/>
		<path style="&st4;" d="M-80.7,25c-0.8,0-1.4-0.1-2-0.4c-0.5-0.3-0.9-0.7-1.2-1.3s-0.4-1.3-0.4-2.2v-5.1c0-0.3,0.1-0.6,0.3-0.8
			c0.2-0.2,0.4-0.2,0.7-0.2c0.3,0,0.6,0.1,0.8,0.2c0.2,0.2,0.3,0.4,0.3,0.8v5.1c0,0.8,0.2,1.4,0.5,1.7c0.3,0.4,0.8,0.6,1.5,0.6
			c0.8,0,1.4-0.3,1.9-0.8c0.5-0.5,0.7-1.2,0.7-2v-4.6c0-0.3,0.1-0.6,0.3-0.8c0.2-0.2,0.4-0.2,0.8-0.2c0.3,0,0.6,0.1,0.7,0.2
			c0.2,0.2,0.3,0.4,0.3,0.8v8c0,0.7-0.3,1-1,1c-0.3,0-0.5-0.1-0.7-0.3c-0.2-0.2-0.3-0.4-0.3-0.8v-1.7l0.3,0.4
			c-0.3,0.7-0.7,1.3-1.3,1.7C-79.2,24.8-79.9,25-80.7,25z"/>
		<path style="&st4;" d="M-67.3,25c-0.9,0-1.6-0.2-2.2-0.7c-0.6-0.4-1-1-1.3-1.7l0.2-0.4v1.7c0,0.3-0.1,0.6-0.3,0.8
			c-0.2,0.2-0.4,0.3-0.7,0.3c-0.3,0-0.6-0.1-0.7-0.3c-0.2-0.2-0.3-0.4-0.3-0.8V11.6c0-0.3,0.1-0.6,0.3-0.8c0.2-0.2,0.4-0.3,0.7-0.3
			s0.6,0.1,0.8,0.3s0.3,0.4,0.3,0.8v5.6h-0.2c0.2-0.7,0.6-1.3,1.3-1.7s1.4-0.6,2.2-0.6c0.9,0,1.6,0.2,2.3,0.6c0.6,0.4,1.1,1,1.5,1.7
			c0.4,0.7,0.5,1.6,0.5,2.7c0,1-0.2,1.9-0.5,2.7s-0.9,1.4-1.5,1.8C-65.7,24.8-66.5,25-67.3,25z M-67.8,23.4c0.6,0,1-0.1,1.5-0.4
			s0.7-0.7,1-1.2c0.2-0.5,0.3-1.2,0.3-1.9c0-1.1-0.2-2-0.8-2.6c-0.5-0.6-1.2-0.9-2-0.9c-0.5,0-1,0.1-1.5,0.4c-0.4,0.3-0.7,0.7-1,1.2
			c-0.2,0.5-0.3,1.2-0.3,1.9c0,1.1,0.3,2,0.8,2.6C-69.3,23.1-68.7,23.4-67.8,23.4z"/>
	</g>
	<polyline style="&st7;" points="-85.6,13.2 -72.6,3.5 -59.6,13.2 -59.6,25.5 	"/>
</g>
<g id="Capa_4">
	<g id="Capa_6" style="&st0;">
		<rect style="&st8;" width="31" height="28"/>
	</g>
	<g id="Capa_5">
		<polygon style="&st9;" points="1.2,13.5 14.8,3.7 28,13 28,26.7 1.2,26.7 		"/>
		<rect style="&st10;" width="31" height="28"/>
	</g>
	<g>
		<path style="&st11;" d="M-34.5,24.8c-0.4,0-0.6-0.1-0.8-0.3c-0.2-0.2-0.3-0.5-0.3-0.8V11.8c0-0.4,0.1-0.6,0.3-0.8
			c0.2-0.2,0.5-0.3,0.8-0.3h7.3c0.3,0,0.5,0.1,0.6,0.2c0.1,0.1,0.2,0.3,0.2,0.6c0,0.3-0.1,0.5-0.2,0.6c-0.1,0.1-0.4,0.2-0.6,0.2
			h-6.4v4.4h6c0.3,0,0.5,0.1,0.7,0.2c0.1,0.1,0.2,0.4,0.2,0.6c0,0.3-0.1,0.5-0.2,0.6c-0.1,0.1-0.4,0.2-0.7,0.2h-6v4.6h6.4
			c0.3,0,0.5,0.1,0.6,0.2c0.1,0.1,0.2,0.4,0.2,0.6c0,0.3-0.1,0.5-0.2,0.6c-0.1,0.1-0.4,0.2-0.6,0.2H-34.5z"/>
		<path style="&st11;" d="M-23.3,24.8c-0.3,0-0.5-0.1-0.6-0.2c-0.2-0.1-0.3-0.3-0.3-0.5c-0.1-0.2-0.1-0.4,0-0.6
			c0.1-0.2,0.2-0.5,0.4-0.7l8-11.1v0.7h-7.5c-0.3,0-0.5-0.1-0.7-0.2s-0.2-0.4-0.2-0.7c0-0.3,0.1-0.5,0.2-0.6
			c0.2-0.1,0.4-0.2,0.7-0.2h8.5c0.3,0,0.5,0.1,0.7,0.2c0.2,0.1,0.3,0.3,0.4,0.4c0.1,0.2,0.1,0.4,0,0.6c-0.1,0.2-0.2,0.5-0.4,0.7
			l-8,11.1v-0.7h7.8c0.3,0,0.5,0.1,0.7,0.2c0.2,0.1,0.2,0.4,0.2,0.6c0,0.3-0.1,0.5-0.2,0.7c-0.2,0.2-0.4,0.2-0.7,0.2H-23.3z"/>
		<path style="&st11;" d="M-10.4,25c-0.3,0-0.6-0.1-0.8-0.3s-0.3-0.4-0.3-0.8V11.6c0-0.3,0.1-0.6,0.3-0.8c0.2-0.2,0.4-0.3,0.8-0.3
			c0.3,0,0.6,0.1,0.8,0.3c0.2,0.2,0.3,0.4,0.3,0.8v5.2h7.9v-5.2c0-0.3,0.1-0.6,0.3-0.8c0.2-0.2,0.4-0.3,0.8-0.3
			c0.3,0,0.6,0.1,0.8,0.3c0.2,0.2,0.3,0.4,0.3,0.8v12.3c0,0.3-0.1,0.6-0.3,0.8C0.1,24.9-0.1,25-0.5,25c-0.3,0-0.6-0.1-0.8-0.3
			c-0.2-0.2-0.3-0.4-0.3-0.8v-5.4h-7.9v5.4c0,0.3-0.1,0.6-0.3,0.8C-9.8,24.9-10.1,25-10.4,25z"/>
		<path style="&st4;" d="M7.3,25c-0.8,0-1.4-0.1-2-0.4c-0.5-0.3-0.9-0.7-1.2-1.3s-0.4-1.3-0.4-2.2v-5.1c0-0.3,0.1-0.6,0.3-0.8
			c0.2-0.2,0.4-0.2,0.7-0.2c0.3,0,0.6,0.1,0.8,0.2c0.2,0.2,0.3,0.4,0.3,0.8v5.1c0,0.8,0.2,1.4,0.5,1.7c0.3,0.4,0.8,0.6,1.5,0.6
			c0.8,0,1.4-0.3,1.9-0.8c0.5-0.5,0.7-1.2,0.7-2v-4.6c0-0.3,0.1-0.6,0.3-0.8c0.2-0.2,0.4-0.2,0.8-0.2c0.3,0,0.6,0.1,0.7,0.2
			c0.2,0.2,0.3,0.4,0.3,0.8v8c0,0.7-0.3,1-1,1c-0.3,0-0.5-0.1-0.7-0.3c-0.2-0.2-0.3-0.4-0.3-0.8v-1.7l0.3,0.4
			c-0.3,0.7-0.7,1.3-1.3,1.7C8.8,24.8,8.1,25,7.3,25z"/>
		<path style="&st4;" d="M20.7,25c-0.9,0-1.6-0.2-2.2-0.7c-0.6-0.4-1-1-1.3-1.7l0.2-0.4v1.7c0,0.3-0.1,0.6-0.3,0.8
			C17,24.9,16.7,25,16.4,25c-0.3,0-0.6-0.1-0.7-0.3c-0.2-0.2-0.3-0.4-0.3-0.8V11.6c0-0.3,0.1-0.6,0.3-0.8c0.2-0.2,0.4-0.3,0.7-0.3
			s0.6,0.1,0.8,0.3s0.3,0.4,0.3,0.8v5.6h-0.2c0.2-0.7,0.6-1.3,1.3-1.7s1.4-0.6,2.2-0.6c0.9,0,1.6,0.2,2.3,0.6c0.6,0.4,1.1,1,1.5,1.7
			c0.4,0.7,0.5,1.6,0.5,2.7c0,1-0.2,1.9-0.5,2.7s-0.9,1.4-1.5,1.8C22.3,24.8,21.5,25,20.7,25z M20.2,23.4c0.6,0,1-0.1,1.5-0.4
			s0.7-0.7,1-1.2c0.2-0.5,0.3-1.2,0.3-1.9c0-1.1-0.2-2-0.8-2.6c-0.5-0.6-1.2-0.9-2-0.9c-0.5,0-1,0.1-1.5,0.4c-0.4,0.3-0.7,0.7-1,1.2
			c-0.2,0.5-0.3,1.2-0.3,1.9c0,1.1,0.3,2,0.8,2.6C18.7,23.1,19.3,23.4,20.2,23.4z"/>
	</g>
	<polyline style="&st12;" points="2.4,13.2 15.4,3.5 28.4,13.2 28.4,25.5 	"/>
	<g>
	</g>
	<g>
	</g>
	<g>
	</g>
	<g>
	</g>
	<g>
	</g>
	<g>
	</g>
	<g>
	</g>
	<g>
	</g>
	<g>
	</g>
	<g>
	</g>
	<g>
	</g>
	<g>
	</g>
	<g>
	</g>
	<g>
	</g>
	<g>
	</g>
</g>
</svg>
