<?xml version="1.0" encoding="utf-8"?>
<!-- Generator: Adobe Illustrator 26.0.0, SVG Export Plug-In . SVG Version: 6.00 Build 0)  -->
<!DOCTYPE svg PUBLIC "-//W3C//DTD SVG 1.1//EN" "http://www.w3.org/Graphics/SVG/1.1/DTD/svg11.dtd" [
	<!ENTITY st0 "fill:#D6D6D6;">
	<!ENTITY st1 "display:none;">
	<!ENTITY st2 "display:inline;fill:#FFFFFF;">
	<!ENTITY st3 "clip-path:url(#SVGID_00000179643432516834742450000014885508312119212469_);">
	<!ENTITY st4 "fill:#FFFFFF;">
]>
<svg version="1.1" id="Capa_1" xmlns="http://www.w3.org/2000/svg" xmlns:xlink="http://www.w3.org/1999/xlink" x="0px" y="0px"
	 viewBox="0 0 512 512" style="enable-background:new 0 0 512 512;" xml:space="preserve">
<g>
	<circle style="&st0;" cx="256" cy="256" r="250"/>
</g>
<g>
	<circle style="&st0;" cx="256" cy="256" r="250"/>
</g>
<g style="&st1;">
	<ellipse style="&st2;" cx="256.1" cy="455.5" rx="220.1" ry="217.5"/>
</g>
<g>
	<defs>
		<circle id="SVGID_1_" cx="256" cy="256" r="250"/>
	</defs>
	<clipPath id="SVGID_00000087390932483292008500000012095636390836390785_">
		<use xlink:href="#SVGID_1_"  style="overflow:visible;"/>
	</clipPath>
	<g style="clip-path:url(#SVGID_00000087390932483292008500000012095636390836390785_);">
		<ellipse style="&st4;" cx="256.1" cy="455.5" rx="220.1" ry="217.5"/>
	</g>
</g>
<g>
	<ellipse style="&st4;" cx="256" cy="162" rx="125.2" ry="114"/>
</g>
<g>
	<path style="&st0;" d="M256,18c32.1,0,63.3,6.3,92.6,18.7c28.3,12,53.8,29.1,75.7,51c21.9,21.9,39,47.3,51,75.7
		c12.4,29.3,18.7,60.5,18.7,92.6s-6.3,63.3-18.7,92.6c-12,28.3-29.1,53.8-51,75.7c-21.9,21.9-47.3,39-75.7,51
		C319.3,487.7,288.1,494,256,494s-63.3-6.3-92.6-18.7c-28.3-12-53.8-29.1-75.7-51c-21.9-21.9-39-47.3-51-75.7
		C24.3,319.3,18,288.1,18,256s6.3-63.3,18.7-92.6c12-28.3,29.1-53.8,51-75.7c21.9-21.9,47.3-39,75.7-51C192.7,24.3,223.9,18,256,18
		 M256,6C117.9,6,6,117.9,6,256s111.9,250,250,250s250-111.9,250-250S394.1,6,256,6L256,6z"/>
</g>
<g>
</g>
<g>
</g>
<g>
</g>
<g>
</g>
<g>
</g>
<g>
</g>
<g>
</g>
<g>
</g>
<g>
</g>
<g>
</g>
<g>
</g>
<g>
</g>
<g>
</g>
<g>
</g>
<g>
</g>
</svg>
